# xmcd
#
# Track frame offsets:
#	150
#	12744
#	23907
#	35127
#	48322
#	74432
#	89727
#	102974
#	114952
#	129793
#	143965
#	156674
#	167696
#	181100
#	192796
#	207276
#	220032
#	230657
#	244965
#	257439
#	271857
#	285444
#	299569
#	314676
#	329146
#
# Disc length: 4564 seconds
#
# Revision: 1
# Processed by: cddbd v1.5.2PL0 Copyright (c) Steve Scherf et al.
# Submitted via: audiograbber 1.83.01
#
DISCID=8311d219
DTITLE=Various Artist -  Longines Symphonette Society - Those Memory Years - C
DTITLE=D 1
DYEAR=1999
DGENRE=Oldies
TTITLE0=Judy Garland - Over the rainbow
TTITLE1=Walter Huston - September Song
TTITLE2=Judy Garland feat. Gene Kelly - For me and my gal
TTITLE3=Bob Hope feat. Shirley Ross - Thanks for the memory
TTITLE4=Fred Waring - Holiday for stringas
TTITLE5=The Ink Spots - I'll never smile again
TTITLE6=The Andrew Sisters - Don't sit under the apple tree
TTITLE7=Tony Martin - Perfidia
TTITLE8=Tommy Dorsey feat. Ray Eberle - Green eyes
TTITLE9=Bing Crosby - Pennies from heaven
TTITLE10=Ethel Merman - It's delovely
TTITLE11=Hoagy Carmichael - Stardust
TTITLE12=Rudy Vallen - Wiffenpoof Song
TTITLE13=Ella Fitzgerald - A tisket, a tasket
TTITLE14=Perry Como feat. Ted Weems - I wonder who's kissing her
TTITLE15=Jimmy Durante - Inka dinka doo
TTITLE16=The Mills Brothers - You're nobody still...
TTITLE17=Bing Crosby - Moonlight becomes you
TTITLE18=Gene Austin - My blue heaven
TTITLE19=Ted Lewis - Three 'o clock in the morning
TTITLE20=Eddie Cantor - Makin' whoopee
TTITLE21=Jimmy Dorsey feat. Ray Eberle and Hele - Tangerine
TTITLE22=The Mills Brothers - You always hurt the one you love
TTITLE23=Fred Waring - Bing Crosby - Way back home
TTITLE24=Perry Como feat. Ted Weems - The old Gang of mine
EXTD=
EXTT0=
EXTT1=
EXTT2=
EXTT3=
EXTT4=
EXTT5=
EXTT6=
EXTT7=
EXTT8=
EXTT9=
EXTT10=
EXTT11=
EXTT12=
EXTT13=
EXTT14=
EXTT15=
EXTT16=
EXTT17=
EXTT18=
EXTT19=
EXTT20=
EXTT21=
EXTT22=
EXTT23=
EXTT24=
PLAYORDER=
